<svg width="16" height="16" viewBox="0 0 16 16" fill="none" xmlns="http://www.w3.org/2000/svg">
<path fill-rule="evenodd" clip-rule="evenodd" d="M9.86563 1.13451C8.50777 0.86441 7.1003 1.00303 5.82122 1.53285C4.54213 2.06266 3.44888 2.95987 2.67971 4.11101C1.91054 5.26215 1.5 6.61553 1.5 8L0.25 8L2.25 10.5L4.25 8L3 8C3 6.9122 3.32257 5.84884 3.92692 4.94437C4.53127 4.0399 5.39025 3.33495 6.39524 2.91867C7.40024 2.50238 8.5061 2.39347 9.573 2.60568C10.6399 2.8179 11.6199 3.34173 12.3891 4.11092C13.1583 4.88011 13.6821 5.86011 13.8943 6.92701C14.1065 7.9939 13.9976 9.09977 13.5813 10.1048C13.1651 11.1098 12.4601 11.9687 11.5556 12.5731C10.6512 13.1774 9.5878 13.5 8.5 13.5V15C9.88447 15 11.2378 14.5895 12.389 13.8203C13.5401 13.0511 14.4373 11.9579 14.9672 10.6788C15.497 9.3997 15.6356 7.99224 15.3655 6.63437C15.0954 5.2765 14.4287 4.02922 13.4497 3.05026C12.4708 2.07129 11.2235 1.4046 9.86563 1.13451Z" fill="#FF0C46"/>
<rect x="6.37866" y="6.99332" width="1" height="5" transform="rotate(-45 6.37866 6.99332)" fill="#FF0C46"/>
<rect x="6.37866" y="9.82175" width="5" height="1" transform="rotate(-45 6.37866 9.82175)" fill="#FF0C46"/>
</svg>
