<svg width="12" height="12" viewBox="0 0 12 12" fill="none" xmlns="http://www.w3.org/2000/svg">
<path fill-rule="evenodd" clip-rule="evenodd" d="M6 11C8.76142 11 11 8.76142 11 6C11 3.23858 8.76142 1 6 1C3.23858 1 1 3.23858 1 6C1 8.76142 3.23858 11 6 11ZM7.5 3.5H6.5V3H5.5V3.5C5.10218 3.5 4.72064 3.65804 4.43934 3.93934C4.15804 4.22064 4 4.60218 4 5C4 5.39782 4.15804 5.77936 4.43934 6.06066C4.72064 6.34196 5.10218 6.5 5.5 6.5H6.5C6.77614 6.5 7 6.72386 7 7C7 7.27614 6.77614 7.5 6.5 7.5H5.5H4.5V8.5H5.5V9H6.5V8.5C6.89782 8.5 7.27936 8.34196 7.56066 8.06066C7.84196 7.77936 8 7.39782 8 7C8 6.60218 7.84196 6.22064 7.56066 5.93934C7.27936 5.65804 6.89782 5.5 6.5 5.5H5.5C5.22386 5.5 5 5.27614 5 5C5 4.72386 5.22386 4.5 5.5 4.5H6.5H7.5V3.5Z" fill="#97ADC6"/>
</svg>
