<svg width="24" height="24" viewBox="0 0 24 24" fill="none" xmlns="http://www.w3.org/2000/svg">
<path fill-rule="evenodd" clip-rule="evenodd" d="M24 12C24 18.6274 18.6274 24 12 24C5.37258 24 0 18.6274 0 12C0 5.37258 5.37258 0 12 0C18.6274 0 24 5.37258 24 12ZM11 15V12H12C13.104 12 14 11.103 14 10C14 8.896 13.104 8 12 8C10.896 8 10 8.896 10 10H8C8 7.795 9.795 6 12 6C14.205 6 16 7.795 16 10C16 11.86 14.723 13.428 13 13.875V15H11ZM13.25 17C13.25 17.6904 12.6904 18.25 12 18.25C11.3096 18.25 10.75 17.6904 10.75 17C10.75 16.3096 11.3096 15.75 12 15.75C12.6904 15.75 13.25 16.3096 13.25 17Z" fill="#1A344B"/>
</svg>
