<svg width="12" height="12" viewBox="0 0 12 12" fill="none" xmlns="http://www.w3.org/2000/svg">
<path fill-rule="evenodd" clip-rule="evenodd" d="M7.5 3C7.5 2.60218 7.34196 2.22064 7.06066 1.93934C6.77936 1.65804 6.39782 1.5 6 1.5C5.60218 1.5 5.22064 1.65804 4.93934 1.93934C4.65804 2.22064 4.5 2.60218 4.5 3L5.5 3H2C1.44772 3 1 3.44772 1 4V10C1 10.5523 1.44772 11 2 11H10C10.5523 11 11 10.5523 11 10V4C11 3.44772 10.5523 3 10 3H7.5ZM5.5 3C5.5 2.72386 5.72386 2.5 6 2.5C6.27614 2.5 6.5 2.72386 6.5 3C6.5 3.27614 6.27614 3.5 6 3.5C5.72386 3.5 5.5 3.27614 5.5 3ZM5 7.5H9V8.5H5V7.5ZM9 5.5H5V6.5H9V5.5ZM3 6C3 5.72386 3.22386 5.5 3.5 5.5C3.77614 5.5 4 5.72386 4 6C4 6.27614 3.77614 6.5 3.5 6.5C3.22386 6.5 3 6.27614 3 6ZM3.5 7.5C3.22386 7.5 3 7.72386 3 8C3 8.27614 3.22386 8.5 3.5 8.5C3.77614 8.5 4 8.27614 4 8C4 7.72386 3.77614 7.5 3.5 7.5Z" fill="#97ADC6"/>
</svg>
