<svg width="16" height="16" viewBox="0 0 16 16" fill="none" xmlns="http://www.w3.org/2000/svg">
<path d="M8 3C4.59091 3 1.67955 5.07333 0.5 8C1.67955 10.9267 4.59091 13 8 13C11.4091 13 14.3205 10.9267 15.5 8C14.3205 5.07333 11.4091 3 8 3ZM8 11.3333C6.11818 11.3333 4.59091 9.84 4.59091 8C4.59091 6.16 6.11818 4.66667 8 4.66667C9.88182 4.66667 11.4091 6.16 11.4091 8C11.4091 9.84 9.88182 11.3333 8 11.3333ZM8 6C6.86818 6 5.95455 6.89333 5.95455 8C5.95455 9.10667 6.86818 10 8 10C9.13182 10 10.0455 9.10667 10.0455 8C10.0455 6.89333 9.13182 6 8 6Z" fill="#ABD7FF"/>
</svg>
