<svg width="16" height="16" viewBox="0 0 16 16" fill="none" xmlns="http://www.w3.org/2000/svg">
<path d="M14.002 9V7H12.9C12.77 6.362 12.515 5.771 12.167 5.246L12.951 4.462L11.537 3.048L10.752 3.832C10.228 3.486 9.637 3.231 9.001 3.102V2H7.001V3.102C6.364 3.231 5.772 3.486 5.248 3.833L4.465 3.05L3.051 4.464L3.834 5.247C3.486 5.771 3.232 6.363 3.102 7H2V9H3.102C3.232 9.638 3.486 10.229 3.835 10.754L3.051 11.538L4.466 12.951L5.249 12.167C5.774 12.515 6.365 12.77 7.002 12.899V14.001H9.002V12.898C9.639 12.769 10.231 12.513 10.755 12.166L11.539 12.949L12.952 11.535L12.168 10.752C12.515 10.228 12.77 9.637 12.9 9H14.002ZM8 10C6.895 10 6 9.104 6 8C6 6.896 6.895 6 8 6C9.104 6 10 6.896 10 8C10 9.104 9.104 10 8 10Z" fill="white"/>
</svg>
