<svg width="16" height="16" viewBox="0 0 16 16" fill="none" xmlns="http://www.w3.org/2000/svg">
<path fill-rule="evenodd" clip-rule="evenodd" d="M5.5 2L3 1V15L5.5 14L8 15L10.5 14L13 15V1L10.5 2L8 1L5.5 2ZM9.5 5.5H8.5V5H7.5V5.5C7.10218 5.5 6.72064 5.65804 6.43934 5.93934C6.15804 6.22064 6 6.60218 6 7C6 7.39782 6.15804 7.77936 6.43934 8.06066C6.72064 8.34196 7.10218 8.5 7.5 8.5H8.5C8.77614 8.5 9 8.72386 9 9C9 9.27614 8.77614 9.5 8.5 9.5H7.5H6.5V10.5H7.5V11H8.5V10.5C8.89782 10.5 9.27936 10.342 9.56066 10.0607C9.84196 9.77936 10 9.39783 10 9C10 8.60218 9.84196 8.22064 9.56066 7.93934C9.27936 7.65804 8.89782 7.5 8.5 7.5H7.5C7.22386 7.5 7 7.27614 7 7C7 6.72386 7.22386 6.5 7.5 6.5H8.5H9.5V5.5Z" fill="#ABD7FF"/>
</svg>
