<svg width="24" height="24" viewBox="0 0 24 24" fill="none" xmlns="http://www.w3.org/2000/svg">
<path fill-rule="evenodd" clip-rule="evenodd" d="M0 12C0 5.37258 5.37258 0 12 0C18.6274 0 24 5.37258 24 12C24 18.6274 18.6274 24 12 24C5.37258 24 0 18.6274 0 12ZM13 9.5C13 11.1569 11.6569 12.5 10 12.5C8.34315 12.5 7 11.1569 7 9.5C7 7.84315 8.34315 6.5 10 6.5C11.6569 6.5 13 7.84315 13 9.5ZM13.5355 14.4645C14.4732 15.4021 15 16.6739 15 18H10H5C5 16.6739 5.52678 15.4021 6.46447 14.4645C7.40215 13.5268 8.67392 13 10 13C11.3261 13 12.5979 13.5268 13.5355 14.4645ZM16 5H17V7H19V8H17V10H16V8H14V7H16V5Z" fill="#97ADC6"/>
</svg>
