<svg width="24" height="24" viewBox="0 0 24 24" fill="none" xmlns="http://www.w3.org/2000/svg">
<path fill-rule="evenodd" clip-rule="evenodd" d="M12 0C5.37258 0 0 5.37258 0 12C0 18.6274 5.37258 24 12 24C18.6274 24 24 18.6274 24 12C24 5.37258 18.6274 0 12 0ZM9.82122 5.53285C11.1003 5.00303 12.5078 4.86441 13.8656 5.13451C15.2235 5.4046 16.4708 6.07129 17.4497 7.05026C18.4287 8.02922 19.0954 9.2765 19.3655 10.6344C19.6356 11.9922 19.497 13.3997 18.9672 14.6788C18.4373 15.9579 17.5401 17.0511 16.389 17.8203C15.2378 18.5895 13.8845 19 12.5 19V17.5C13.5878 17.5 14.6512 17.1774 15.5556 16.5731C16.4601 15.9687 17.1651 15.1098 17.5813 14.1048C17.9976 13.0998 18.1065 11.9939 17.8943 10.927C17.6821 9.86011 17.1583 8.88011 16.3891 8.11092C15.6199 7.34173 14.6399 6.8179 13.573 6.60568C12.5061 6.39347 11.4002 6.50238 10.3952 6.91867C9.39025 7.33495 8.53127 8.0399 7.92692 8.94437C7.32257 9.84884 7 10.9122 7 12L8.25 12L6.25 14.5L4.25 12L5.5 12C5.5 10.6155 5.91054 9.26215 6.67971 8.11101C7.44888 6.95987 8.54213 6.06266 9.82122 5.53285ZM9.5 9H10.5V16H9.5V9ZM15 9H11V13H15C15.5523 13 16 12.5523 16 12V10C16 9.44771 15.5523 9 15 9ZM12.5 11V10H11.5V11H12.5ZM13.5 11H12.5V12H13.5V11ZM14.5 11H13.5V10H14.5V11ZM14.5 11H15.5V12H14.5V11Z" fill="#FF0C46"/>
</svg>
