<svg width="24" height="24" viewBox="0 0 24 24" fill="none" xmlns="http://www.w3.org/2000/svg">
<path fill-rule="evenodd" clip-rule="evenodd" d="M0 12C0 5.37258 5.37258 0 12 0C18.6274 0 24 5.37258 24 12C24 18.6274 18.6274 24 12 24C5.37258 24 0 18.6274 0 12ZM13 9.5H14V10.5H13H12C11.7239 10.5 11.5 10.7239 11.5 11C11.5 11.2761 11.7239 11.5 12 11.5H13C13.3978 11.5 13.7794 11.658 14.0607 11.9393C14.342 12.2206 14.5 12.6022 14.5 13C14.5 13.3978 14.342 13.7794 14.0607 14.0607C13.7794 14.342 13.3978 14.5 13 14.5V15H12V14.5H11V13.5H12H13C13.2761 13.5 13.5 13.2761 13.5 13C13.5 12.7239 13.2761 12.5 13 12.5H12C11.6022 12.5 11.2206 12.342 10.9393 12.0607C10.658 11.7794 10.5 11.3978 10.5 11C10.5 10.6022 10.658 10.2206 10.9393 9.93934C11.2206 9.65804 11.6022 9.5 12 9.5V9H13V9.5ZM9.82122 5.53285C11.1003 5.00303 12.5078 4.86441 13.8656 5.13451C15.2235 5.4046 16.4708 6.07129 17.4497 7.05026C18.4287 8.02922 19.0954 9.2765 19.3655 10.6344C19.6356 11.9922 19.497 13.3997 18.9672 14.6788C18.4373 15.9579 17.5401 17.0511 16.389 17.8203C15.2378 18.5895 13.8845 19 12.5 19V17.5C13.5878 17.5 14.6512 17.1774 15.5556 16.5731C16.4601 15.9687 17.1651 15.1098 17.5813 14.1048C17.9976 13.0998 18.1065 11.9939 17.8943 10.927C17.6821 9.86011 17.1583 8.88011 16.3891 8.11092C15.6199 7.34173 14.6399 6.8179 13.573 6.60568C12.5061 6.39347 11.4002 6.50238 10.3952 6.91867C9.39025 7.33495 8.53127 8.0399 7.92692 8.94437C7.32257 9.84884 7 10.9122 7 12L8.25 12L6.25 14.5L4.25 12L5.5 12C5.5 10.6155 5.91054 9.26215 6.67971 8.11101C7.44888 6.95987 8.54213 6.06266 9.82122 5.53285Z" fill="#20BF55"/>
</svg>
