<svg width="24" height="24" viewBox="0 0 24 24" fill="none" xmlns="http://www.w3.org/2000/svg">
<path fill-rule="evenodd" clip-rule="evenodd" d="M12 0C5.37258 0 0 5.37258 0 12C0 18.6274 5.37258 24 12 24C18.6274 24 24 18.6274 24 12C24 5.37258 18.6274 0 12 0ZM5 6C4.44772 6 4 6.44771 4 7V10C5.10457 10 6 10.8954 6 12C6 13.1046 5.10457 14 4 14V17C4 17.5523 4.44772 18 5 18H19C19.5523 18 20 17.5523 20 17V14C18.8954 14 18 13.1046 18 12C18 10.8954 18.8954 10 20 10V7C20 6.44772 19.5523 6 19 6H5ZM9.5 8H8.5V16H9.5V8ZM10 8H15C15.5523 8 16 8.44772 16 9V12C16 12.5523 15.5523 13 15 13H10V8Z" fill="#F6921D"/>
</svg>
