<svg width="12" height="12" viewBox="0 0 12 12" fill="none" xmlns="http://www.w3.org/2000/svg">
<path d="M6 1C3.243 1 1 3.2435 1 6C1 8.7575 3.243 11 6 11C8.757 11 11 8.7575 11 6C11 3.2435 8.757 1 6 1ZM6 9.125C5.655 9.125 5.375 8.8455 5.375 8.5C5.375 8.155 5.655 7.875 6 7.875C6.345 7.875 6.625 8.155 6.625 8.5C6.625 8.8455 6.345 9.125 6 9.125ZM6.5 6.9375V7.5H5.5V6H6C6.552 6 7 5.5515 7 5C7 4.448 6.552 4 6 4C5.448 4 5 4.448 5 5H4C4 3.8975 4.8975 3 6 3C7.1025 3 8 3.8975 8 5C8 5.9305 7.3615 6.7145 6.5 6.9375Z" fill="#97ADC6"/>
</svg>
