<svg width="16" height="16" viewBox="0 0 16 16" fill="none" xmlns="http://www.w3.org/2000/svg">
<circle cx="6" cy="5.5" r="3" fill="white"/>
<path d="M11 14C11 12.6739 10.4732 11.4021 9.53553 10.4645C8.59785 9.52678 7.32608 9 6 9C4.67392 9 3.40215 9.52678 2.46447 10.4645C1.52678 11.4021 1 12.6739 1 14L6 14H11Z" fill="white"/>
<circle cx="11.5" cy="6" r="1.5" fill="white"/>
<path fill-rule="evenodd" clip-rule="evenodd" d="M12.0792 11C11.8316 10.4326 11.4784 9.9107 11.0322 9.46447C10.6586 9.09087 10.232 8.7825 9.77 8.54669C10.2721 8.19332 10.8744 8 11.4967 8C12.2923 8 13.0554 8.31607 13.618 8.87868C14.1806 9.44129 14.4967 10.2044 14.4967 11H12.0792Z" fill="white"/>
</svg>
