<svg width="16" height="16" viewBox="0 0 16 16" fill="none" xmlns="http://www.w3.org/2000/svg">
<path fill-rule="evenodd" clip-rule="evenodd" d="M1.70711 8.7071C1.31658 8.31658 1.31658 7.68341 1.70711 7.29289L7.36396 1.63603C7.75448 1.24551 8.38765 1.24551 8.77817 1.63603L14.435 7.29289C14.8256 7.68341 14.8256 8.31658 14.435 8.7071L8.77817 14.364C8.38765 14.7545 7.75448 14.7545 7.36396 14.364L1.70711 8.7071ZM7.25 5H8.75V9H7.25V5ZM8 11.5C8.55228 11.5 9 11.0523 9 10.5C9 9.94771 8.55228 9.5 8 9.5C7.44771 9.5 7 9.94771 7 10.5C7 11.0523 7.44771 11.5 8 11.5Z" fill="white"/>
</svg>
